<svg width="18" height="18" viewBox="0 0 18 18" fill="none" xmlns="http://www.w3.org/2000/svg">
<path d="M9.00033 0.666016C4.40033 0.666016 0.666992 4.39935 0.666992 8.99935C0.666992 13.5993 4.40033 17.3327 9.00033 17.3327H13.167V15.666H9.00033C5.38366 15.666 2.33366 12.616 2.33366 8.99935C2.33366 5.38268 5.38366 2.33268 9.00033 2.33268C12.617 2.33268 15.667 5.38268 15.667 8.99935V10.191C15.667 10.8493 15.0753 11.4993 14.417 11.4993C13.7587 11.4993 13.167 10.8493 13.167 10.191V8.99935C13.167 6.69935 11.3003 4.83268 9.00033 4.83268C6.70033 4.83268 4.83366 6.69935 4.83366 8.99935C4.83366 11.2993 6.70033 13.166 9.00033 13.166C10.1503 13.166 11.2003 12.6993 11.9503 11.941C12.492 12.6827 13.4253 13.166 14.417 13.166C16.0587 13.166 17.3337 11.8327 17.3337 10.191V8.99935C17.3337 4.39935 13.6003 0.666016 9.00033 0.666016ZM9.00033 11.4993C7.61699 11.4993 6.50033 10.3827 6.50033 8.99935C6.50033 7.61602 7.61699 6.49935 9.00033 6.49935C10.3837 6.49935 11.5003 7.61602 11.5003 8.99935C11.5003 10.3827 10.3837 11.4993 9.00033 11.4993Z" fill="#7A7A7A"/>
</svg>
