<svg width="16" height="16" viewBox="0 0 16 16" fill="none" xmlns="http://www.w3.org/2000/svg">
<path d="M1.325 10.8167C2.35 10.8167 3.34167 10.65 4.26667 10.35C4.55833 10.25 4.88333 10.325 5.10833 10.55L6.41667 12.1917C8.775 11.0667 10.9833 8.94167 12.1583 6.5L10.5333 5.11667C10.3083 4.88333 10.2417 4.55833 10.3333 4.26667C10.6417 3.34167 10.8 2.35 10.8 1.325C10.8 0.875 11.175 0.5 11.625 0.5H14.5083C14.9583 0.5 15.5 0.7 15.5 1.325C15.5 9.06667 9.05833 15.5 1.325 15.5C0.733334 15.5 0.5 14.975 0.5 14.5167V11.6417C0.5 11.1917 0.875 10.8167 1.325 10.8167Z" fill="#7A7A7A"/>
</svg>
