<svg width="18" height="18" viewBox="0 0 18 18" fill="none" xmlns="http://www.w3.org/2000/svg">
<path fill-rule="evenodd" clip-rule="evenodd" d="M2.90274 2.90274C-0.0782584 5.88375 -0.0782584 10.7169 2.90274 13.6979C5.88375 16.6789 10.7169 16.6789 13.6979 13.6979C16.6789 10.7169 16.6789 5.88375 13.6979 2.90274C10.7169 -0.0782584 5.88375 -0.0782584 2.90274 2.90274ZM4.08126 4.08126C6.41138 1.75113 10.1893 1.75113 12.5194 4.08126C14.8495 6.41138 14.8495 10.1893 12.5194 12.5194C10.1893 14.8495 6.41138 14.8495 4.08126 12.5194C1.75113 10.1893 1.75113 6.41138 4.08126 4.08126Z" fill="#7A7A7A"/>
<path d="M17.4123 15.9024L13.971 12.4612C13.1854 11.6755 12.0069 12.854 12.7925 13.6397L16.2338 17.0809C17.0194 17.8666 18.1979 16.6881 17.4123 15.9024Z" fill="#7A7A7A"/>
</svg>
