<svg width="22" height="22" viewBox="0 0 22 22" fill="none" xmlns="http://www.w3.org/2000/svg">
<path d="M1.15007 7.14524L20.0826 0.794052C20.6422 0.606332 21.2661 0.91418 21.4762 1.48165C21.5631 1.71631 21.5681 1.97049 21.4905 2.20189L15.1393 21.1345C14.9516 21.694 14.3394 21.9774 13.7719 21.7673C13.5253 21.676 13.3163 21.5004 13.183 21.2723L9.62345 15.1839C9.53427 15.0314 9.54288 14.8439 9.64532 14.7077L14.9055 7.71603C14.9504 7.65539 14.9581 7.57555 14.929 7.50606L14.9003 7.45634C14.8372 7.37317 14.7283 7.34508 14.6391 7.38271L14.5965 7.40706L7.61199 12.6601C7.47583 12.7625 7.28836 12.7711 7.13585 12.6819L1.0122 9.10156C0.487471 8.79478 0.294103 8.13024 0.580306 7.61726C0.704675 7.39435 0.906902 7.22681 1.15007 7.14524Z" fill="white"/>
</svg>
